<?xml version="1.0" encoding="UTF-8" standalone="no"?><!-- Generator: Gravit.io --><svg xmlns="http://www.w3.org/2000/svg" xmlns:xlink="http://www.w3.org/1999/xlink" style="isolation:isolate" viewBox="0 0 32 32" width="32pt" height="32pt"><defs><clipPath id="_clipPath_G4pLkJyylTWwYRVZRJPUpF1lDlhnGhzA"><rect width="32" height="32"/></clipPath></defs><g clip-path="url(#_clipPath_G4pLkJyylTWwYRVZRJPUpF1lDlhnGhzA)"><g><path d=" M 20.154 2.467 C 23.819 3.297 27.398 6.461 29.428 10.732 C 29.68 11.262 30.038 12.144 30.226 12.7 C 31.91 17.681 30.812 22.958 27.376 26.678 C 26.978 27.109 26.196 27.33 25.631 27.17 C 23.09 26.451 20.567 23.659 19.436 20.065 C 19.259 19.505 19.006 18.587 18.87 18.015 C 16.313 7.256 16.302 1.661 18.074 2.02 C 18.649 2.137 19.581 2.337 20.154 2.467 Z " fill="none" vector-effect="non-scaling-stroke" stroke-width="1.5" stroke="rgb(0,191,211)" stroke-linejoin="miter" stroke-linecap="square" stroke-miterlimit="3"/><path d=" M 11.724 2.468 C 8.102 3.296 4.562 6.459 2.552 10.731 C 2.303 11.26 1.951 12.138 1.765 12.692 C 0.097 17.675 1.184 22.95 4.584 26.669 C 4.977 27.1 5.753 27.32 6.315 27.16 C 8.824 26.442 11.32 23.651 12.44 20.054 C 12.614 19.497 12.864 18.583 12.997 18.014 C 15.528 7.254 15.539 1.661 13.792 2.019 C 13.22 2.137 12.293 2.338 11.724 2.468 Z " fill="none" vector-effect="non-scaling-stroke" stroke-width="1.5" stroke="rgb(0,191,211)" stroke-linejoin="miter" stroke-linecap="square" stroke-miterlimit="3"/><path d=" M 15.572 22.133 C 14.775 24.205 12.666 27.028 10.38 28.885 C 9.927 29.253 9.989 29.751 10.519 29.997 C 13.372 31.322 17.3 31.343 20.314 29.986 C 20.846 29.746 20.956 29.204 20.558 28.777 C 18.617 26.688 16.852 23.896 16.281 22.151 C 16.099 21.596 15.781 21.588 15.572 22.133 Z " fill="none" vector-effect="non-scaling-stroke" stroke-width="1.5" stroke="rgb(0,191,211)" stroke-linejoin="miter" stroke-linecap="square" stroke-miterlimit="3"/></g></g></svg>