<?xml version="1.0" encoding="UTF-8" standalone="no"?><!-- Generator: Gravit.io --><svg xmlns="http://www.w3.org/2000/svg" xmlns:xlink="http://www.w3.org/1999/xlink" style="isolation:isolate" viewBox="0 0 32 32" width="32pt" height="32pt"><defs><clipPath id="_clipPath_ROjDDshfJcrKE8VvfnWUdIsA40iWHvVv"><rect width="32" height="32"/></clipPath></defs><g clip-path="url(#_clipPath_ROjDDshfJcrKE8VvfnWUdIsA40iWHvVv)"><mask id="_mask_nWyFZkxAvPmnqWgY7LwFKDr7oT0O6IUS" x="-200%" y="-200%" width="400%" height="400%"><rect x="-200%" y="-200%" width="400%" height="400%" style="fill:white;"/><path d=" M 19.489 14.719 C 18.505 14.112 17.458 13.649 16.422 13.169 C 15.821 12.892 15.245 12.568 14.738 12.117 C 13.738 11.226 13.929 9.781 15.1 9.208 C 15.432 9.046 15.779 8.994 16.132 8.971 C 17.489 8.89 18.779 9.168 20.007 9.827 C 20.619 10.156 20.821 10.052 21.028 9.341 C 21.246 8.589 21.427 7.826 21.629 7.068 C 21.764 6.56 21.598 6.224 21.168 6.01 C 20.381 5.623 19.572 5.345 18.722 5.195 C 17.613 5.004 17.613 4.998 17.608 3.755 C 17.603 2.003 17.603 2.003 16.028 2.003 C 15.8 2.003 15.572 1.997 15.344 2.003 C 14.608 2.026 14.484 2.17 14.463 2.997 C 14.453 3.367 14.463 3.737 14.458 4.113 C 14.453 5.212 14.447 5.195 13.504 5.576 C 11.224 6.502 9.815 8.237 9.665 11.012 C 9.53 13.47 10.68 15.13 12.489 16.338 C 13.603 17.084 14.836 17.524 16.018 18.108 C 16.479 18.334 16.919 18.594 17.303 18.952 C 18.437 19.999 18.23 21.74 16.883 22.399 C 16.163 22.752 15.401 22.838 14.618 22.729 C 13.411 22.561 12.256 22.208 11.167 21.578 C 10.53 21.208 10.343 21.306 10.126 22.075 C 9.939 22.74 9.773 23.411 9.608 24.082 C 9.385 24.984 9.468 25.198 10.24 25.62 C 11.224 26.152 12.276 26.424 13.349 26.615 C 14.188 26.765 14.214 26.806 14.225 27.777 C 14.23 28.217 14.23 28.662 14.235 29.101 C 14.24 29.657 14.479 29.98 14.992 29.992 C 15.572 30.004 16.157 30.004 16.738 29.986 C 17.215 29.975 17.458 29.685 17.458 29.148 C 17.458 28.546 17.484 27.939 17.463 27.338 C 17.437 26.725 17.676 26.412 18.204 26.25 C 19.422 25.88 20.458 25.152 21.256 24.064 C 23.474 21.057 22.629 16.657 19.489 14.719 Z " fill="black" stroke="none"/></mask><path d=" M 19.489 14.719 C 18.505 14.112 17.458 13.649 16.422 13.169 C 15.821 12.892 15.245 12.568 14.738 12.117 C 13.738 11.226 13.929 9.781 15.1 9.208 C 15.432 9.046 15.779 8.994 16.132 8.971 C 17.489 8.89 18.779 9.168 20.007 9.827 C 20.619 10.156 20.821 10.052 21.028 9.341 C 21.246 8.589 21.427 7.826 21.629 7.068 C 21.764 6.56 21.598 6.224 21.168 6.01 C 20.381 5.623 19.572 5.345 18.722 5.195 C 17.613 5.004 17.613 4.998 17.608 3.755 C 17.603 2.003 17.603 2.003 16.028 2.003 C 15.8 2.003 15.572 1.997 15.344 2.003 C 14.608 2.026 14.484 2.17 14.463 2.997 C 14.453 3.367 14.463 3.737 14.458 4.113 C 14.453 5.212 14.447 5.195 13.504 5.576 C 11.224 6.502 9.815 8.237 9.665 11.012 C 9.53 13.47 10.68 15.13 12.489 16.338 C 13.603 17.084 14.836 17.524 16.018 18.108 C 16.479 18.334 16.919 18.594 17.303 18.952 C 18.437 19.999 18.23 21.74 16.883 22.399 C 16.163 22.752 15.401 22.838 14.618 22.729 C 13.411 22.561 12.256 22.208 11.167 21.578 C 10.53 21.208 10.343 21.306 10.126 22.075 C 9.939 22.74 9.773 23.411 9.608 24.082 C 9.385 24.984 9.468 25.198 10.24 25.62 C 11.224 26.152 12.276 26.424 13.349 26.615 C 14.188 26.765 14.214 26.806 14.225 27.777 C 14.23 28.217 14.23 28.662 14.235 29.101 C 14.24 29.657 14.479 29.98 14.992 29.992 C 15.572 30.004 16.157 30.004 16.738 29.986 C 17.215 29.975 17.458 29.685 17.458 29.148 C 17.458 28.546 17.484 27.939 17.463 27.338 C 17.437 26.725 17.676 26.412 18.204 26.25 C 19.422 25.88 20.458 25.152 21.256 24.064 C 23.474 21.057 22.629 16.657 19.489 14.719 Z " fill="none" mask="url(#_mask_nWyFZkxAvPmnqWgY7LwFKDr7oT0O6IUS)" vector-effect="non-scaling-stroke" stroke-width="3" stroke="rgb(0,191,211)" stroke-linejoin="miter" stroke-linecap="butt" stroke-miterlimit="4"/><path d=" M 19.489 14.719 C 18.505 14.112 17.458 13.649 16.422 13.169 C 15.821 12.892 15.245 12.568 14.738 12.117 C 13.738 11.226 13.929 9.781 15.1 9.208 C 15.432 9.046 15.779 8.994 16.132 8.971 C 17.489 8.89 18.779 9.168 20.007 9.827 C 20.619 10.156 20.821 10.052 21.028 9.341 C 21.246 8.589 21.427 7.826 21.629 7.068 C 21.764 6.56 21.598 6.224 21.168 6.01 C 20.381 5.623 19.572 5.345 18.722 5.195 C 17.613 5.004 17.613 4.998 17.608 3.755 C 17.603 2.003 17.603 2.003 16.028 2.003 C 15.8 2.003 15.572 1.997 15.344 2.003 C 14.608 2.026 14.484 2.17 14.463 2.997 C 14.453 3.367 14.463 3.737 14.458 4.113 C 14.453 5.212 14.447 5.195 13.504 5.576 C 11.224 6.502 9.815 8.237 9.665 11.012 C 9.53 13.47 10.68 15.13 12.489 16.338 C 13.603 17.084 14.836 17.524 16.018 18.108 C 16.479 18.334 16.919 18.594 17.303 18.952 C 18.437 19.999 18.23 21.74 16.883 22.399 C 16.163 22.752 15.401 22.838 14.618 22.729 C 13.411 22.561 12.256 22.208 11.167 21.578 C 10.53 21.208 10.343 21.306 10.126 22.075 C 9.939 22.74 9.773 23.411 9.608 24.082 C 9.385 24.984 9.468 25.198 10.24 25.62 C 11.224 26.152 12.276 26.424 13.349 26.615 C 14.188 26.765 14.214 26.806 14.225 27.777 C 14.23 28.217 14.23 28.662 14.235 29.101 C 14.24 29.657 14.479 29.98 14.992 29.992 C 15.572 30.004 16.157 30.004 16.738 29.986 C 17.215 29.975 17.458 29.685 17.458 29.148 C 17.458 28.546 17.484 27.939 17.463 27.338 C 17.437 26.725 17.676 26.412 18.204 26.25 C 19.422 25.88 20.458 25.152 21.256 24.064 C 23.474 21.057 22.629 16.657 19.489 14.719 Z " fill="none"/></g></svg>