<?xml version="1.0" encoding="UTF-8" standalone="no"?><!-- Generator: Gravit.io --><svg xmlns="http://www.w3.org/2000/svg" xmlns:xlink="http://www.w3.org/1999/xlink" style="isolation:isolate" viewBox="0 0 32 32" width="32pt" height="32pt"><defs><clipPath id="_clipPath_mNJslC8llgRnAHVdPQvrKTcvFK3yC7J5"><rect width="32" height="32"/></clipPath></defs><g clip-path="url(#_clipPath_mNJslC8llgRnAHVdPQvrKTcvFK3yC7J5)"><g><path d=" M 25.807 13.219 C 26.611 15.666 26.635 18.408 25.807 21.365 C 20.126 23.659 14.457 23.802 8.767 21.75" fill="none" vector-effect="non-scaling-stroke" stroke-width="1.5" stroke="rgb(0,191,211)" stroke-linejoin="miter" stroke-linecap="square" stroke-miterlimit="3"/><path d=" M 1.456 10.016 L 14.873 4.202 C 15.494 3.933 16.502 3.933 17.123 4.202 L 30.54 10.016 C 31.161 10.285 31.152 10.696 30.521 10.933 L 18.346 15.505 C 17.715 15.742 16.684 15.767 16.044 15.561 L 1.49 10.876 C 0.85 10.67 0.835 10.285 1.456 10.016 Z " fill="none" vector-effect="non-scaling-stroke" stroke-width="1.5" stroke="rgb(0,191,211)" stroke-linejoin="miter" stroke-linecap="square" stroke-miterlimit="3"/><g><rect x="4.911" y="11.861" width="1.205" height="5.295" transform="matrix(1,0,0,1,0,0)" fill="rgb(0,191,211)"/><rect x="4.911" y="20.958" width="1.205" height="5.295" transform="matrix(1,0,0,1,0,0)" fill="rgb(0,191,211)"/><rect x="6.28" y="24.272" width="1.358" height="4.097" transform="matrix(0,-1,1,0,-19.362,33.28)" fill="rgb(0,191,211)"/><rect x="7.803" y="13.219" width="1.205" height="3.938" transform="matrix(1,0,0,1,0,0)" fill="rgb(0,191,211)"/><rect x="7.803" y="20.958" width="1.205" height="5.295" transform="matrix(1,0,0,1,0,0)" fill="rgb(0,191,211)"/><path d=" M 5.152 21.365 C 4.282 20.942 3.665 19.85 3.665 18.961 C 3.665 18.071 4.282 16.881 5.152 16.556" fill="none" vector-effect="non-scaling-stroke" stroke-width="1" stroke="rgb(0,191,211)" stroke-linejoin="miter" stroke-linecap="square" stroke-miterlimit="3"/><path d=" M 8.518 21.365 C 9.368 20.942 9.972 19.85 9.972 18.961 C 9.972 18.071 9.368 16.881 8.518 16.556" fill="none" vector-effect="non-scaling-stroke" stroke-width="1" stroke="rgb(0,191,211)" stroke-linejoin="miter" stroke-linecap="square" stroke-miterlimit="3"/></g></g></g></svg>