<?xml version="1.0" encoding="UTF-8" standalone="no"?><!-- Generator: Gravit.io --><svg xmlns="http://www.w3.org/2000/svg" xmlns:xlink="http://www.w3.org/1999/xlink" style="isolation:isolate" viewBox="0 0 32 32" width="32pt" height="32pt"><defs><clipPath id="_clipPath_EBQCq2H7ICv6SnC4VHkSZo07SdvonIPv"><rect width="32" height="32"/></clipPath></defs><g clip-path="url(#_clipPath_EBQCq2H7ICv6SnC4VHkSZo07SdvonIPv)"><g><path d=" M 6.182 12.911 L 7.113 10.8 C 7.178 10.652 7.144 10.433 7.037 10.312 L 5.089 8.104 C 4.982 7.982 4.983 7.786 5.091 7.665 L 7.328 5.16 C 7.435 5.04 7.635 5.01 7.774 5.094 L 10.191 6.555 C 10.33 6.639 10.57 6.678 10.728 6.643 L 12.783 6.183 C 12.941 6.147 13.088 5.989 13.11 5.829 L 13.612 2.29 C 13.635 2.13 13.784 2 13.946 2 L 17.739 2 C 17.9 2 18.041 2.131 18.052 2.292 L 18.303 5.826 C 18.314 5.988 18.445 6.168 18.595 6.228 L 20.971 7.186 C 21.121 7.246 21.349 7.218 21.479 7.122 L 24.217 5.115 C 24.348 5.02 24.541 5.04 24.649 5.16 L 26.886 7.665 C 26.993 7.786 26.995 7.983 26.889 8.105 L 25.23 10.016 C 25.124 10.138 25.086 10.359 25.146 10.51 L 26.097 12.907 C 26.157 13.057 26.335 13.199 26.495 13.224 L 29.71 13.723 C 29.87 13.748 30 13.899 30 14.061 L 30 17.299 C 30 17.461 29.87 17.612 29.71 17.637 L 26.495 18.136 C 26.335 18.16 26.157 18.303 26.097 18.453 L 25.146 20.85 C 25.086 21 25.105 21.235 25.187 21.374 L 26.639 23.813 C 26.722 23.952 26.696 24.158 26.583 24.272 L 24.66 26.21 C 24.546 26.325 24.346 26.342 24.214 26.249 L 21.774 24.527 C 21.642 24.434 21.416 24.414 21.269 24.483 L 18.516 25.778 C 18.369 25.847 18.232 26.033 18.209 26.193 L 17.708 29.732 C 17.685 29.892 17.536 30.012 17.375 29.999 L 14.164 29.75 C 14.003 29.738 13.862 29.597 13.85 29.435 L 13.602 26.195 C 13.59 26.034 13.463 25.843 13.32 25.768 L 11.14 24.64 C 10.996 24.566 10.769 24.577 10.633 24.664 L 7.915 26.407 C 7.779 26.494 7.579 26.469 7.468 26.351 L 5.315 24.057 C 5.204 23.939 5.201 23.745 5.307 23.622 L 6.966 21.711 C 7.072 21.589 7.113 21.367 7.058 21.215 L 6.09 18.53 C 6.035 18.378 5.863 18.224 5.705 18.186 L 2.262 17.366 C 2.104 17.328 1.987 17.167 2.001 17.006 L 2.244 14.06 C 2.258 13.899 2.398 13.748 2.558 13.723 L 5.774 13.224 C 5.934 13.199 6.116 13.059 6.182 12.911 Z " fill="none" vector-effect="non-scaling-stroke" stroke-width="2" stroke="rgb(0,191,211)" stroke-linejoin="miter" stroke-linecap="square" stroke-miterlimit="3"/><ellipse vector-effect="non-scaling-stroke" cx="15.988258982229432" cy="15.827007810582138" rx="5.108447246062183" ry="5.074806058139185" fill="none" stroke-width="2" stroke="rgb(0,191,211)" stroke-linejoin="miter" stroke-linecap="square" stroke-miterlimit="3"/></g></g></svg>