<?xml version="1.0" encoding="UTF-8" standalone="no"?><!-- Generator: Gravit.io --><svg xmlns="http://www.w3.org/2000/svg" xmlns:xlink="http://www.w3.org/1999/xlink" style="isolation:isolate" viewBox="0 0 32 32" width="32pt" height="32pt"><defs><clipPath id="_clipPath_3RLBs6Po8f3DN1zFZX01cpNVL9VPDP69"><rect width="32" height="32"/></clipPath></defs><g clip-path="url(#_clipPath_3RLBs6Po8f3DN1zFZX01cpNVL9VPDP69)"><g><path d=" M 6.836 11.82 C 5.229 13.58 3.317 15.603 2.089 17.998 C 2.008 18.155 1.977 18.421 2.02 18.592 C 2.203 19.331 3.271 20.61 4.236 21.288 C 4.38 21.389 4.623 21.403 4.777 21.319 L 7.729 19.71 C 7.883 19.626 8.11 19.659 8.235 19.783 L 12.253 23.797 C 12.377 23.922 12.405 24.145 12.314 24.296 L 10.727 26.939 C 10.637 27.09 10.615 27.346 10.679 27.51 C 11.015 28.369 11.976 29.329 13.153 29.936 C 13.309 30.017 13.566 30.023 13.726 29.949 Q 15.876 28.955 20.219 25.189 C 20.352 25.073 20.497 24.842 20.542 24.671 Q 21.378 21.542 21.41 20.196 C 21.414 20.02 21.516 19.773 21.638 19.646 L 27.901 13.09 C 28.023 12.963 28.164 12.723 28.215 12.554 C 29.118 9.586 29.759 7.037 29.99 5.521 C 30.016 5.346 29.99 5.07 29.933 4.904 C 29.646 4.082 29.011 3.341 28.417 3.095 C 28.254 3.027 27.98 2.986 27.804 3.003 C 25.407 3.232 22.537 3.873 19.805 4.785 C 19.638 4.841 19.396 4.982 19.266 5.101 L 12.715 11.051 C 12.584 11.169 12.336 11.251 12.161 11.233 C 10.55 11.072 8.744 11.182 7.362 11.51 C 7.19 11.551 6.955 11.69 6.836 11.82 Z " fill="none" vector-effect="non-scaling-stroke" stroke-width="2" stroke="rgb(0,191,211)" stroke-linejoin="miter" stroke-linecap="square" stroke-miterlimit="3"/><ellipse vector-effect="non-scaling-stroke" cx="24.29085017425342" cy="8.394520954047195" rx="0.9577626118116029" ry="0.9568386492985046" fill="rgb(0,191,211)"/></g></g></svg>