<?xml version="1.0" encoding="UTF-8" standalone="no"?><!-- Generator: Gravit.io --><svg xmlns="http://www.w3.org/2000/svg" xmlns:xlink="http://www.w3.org/1999/xlink" style="isolation:isolate" viewBox="0 0 32 32" width="32pt" height="32pt"><defs><clipPath id="_clipPath_auQyFR3HxaP2dw2hLfQia1rJJmNjoQ8G"><rect width="32" height="32"/></clipPath></defs><g clip-path="url(#_clipPath_auQyFR3HxaP2dw2hLfQia1rJJmNjoQ8G)"><g><path d=" M 5.955 24 L 27.593 24 C 27.76 24 28.011 23.929 28.154 23.841 C 31.973 21.485 31.916 15.599 28.168 13.769 C 28.018 13.696 27.917 13.503 27.943 13.338 C 28.535 9.598 24.308 6.798 20.939 8.904 C 20.797 8.993 20.615 8.947 20.533 8.801 C 16.253 1.252 7.978 1.605 5.726 10.6 C 5.686 10.762 5.535 10.961 5.39 11.044 C -0.265 14.284 -0.66 20.228 5.393 23.845 C 5.536 23.93 5.788 24 5.955 24 Z " fill="none" vector-effect="non-scaling-stroke" stroke-width="1.5" stroke="rgb(0,191,211)" stroke-linejoin="miter" stroke-linecap="square" stroke-miterlimit="3"/><path d=" M 12.42 20.952 L 12.42 13.657 L 9.861 13.657 L 14.613 9.065 L 19 13.657 L 16.441 13.657 L 16.441 20.952 L 12.42 20.952 Z " fill="none" vector-effect="non-scaling-stroke" stroke-width="1" stroke="rgb(0,191,211)" stroke-linejoin="miter" stroke-linecap="square" stroke-miterlimit="3"/></g></g></svg>