<?xml version="1.0" encoding="UTF-8" standalone="no"?><!-- Generator: Gravit.io --><svg xmlns="http://www.w3.org/2000/svg" xmlns:xlink="http://www.w3.org/1999/xlink" style="isolation:isolate" viewBox="0 0 32 32" width="32pt" height="32pt"><defs><clipPath id="_clipPath_T0itXv9vUkAwOPC0niZKDfbyfduKWGai"><rect width="32" height="32"/></clipPath></defs><g clip-path="url(#_clipPath_T0itXv9vUkAwOPC0niZKDfbyfduKWGai)"><path d=" M 7.556 15.832 L 7.556 7.001 C 7.556 6.294 7.91 5.268 8.346 4.711 C 12.491 -0.575 19.467 -0.572 24.193 4.761 C 24.662 5.29 25.043 6.294 25.043 7.001 L 25.043 10.138 C 25.043 10.315 24.945 10.566 24.823 10.696 C 23.879 11.711 22.678 11.714 21.656 10.688 C 21.53 10.562 21.429 10.315 21.429 10.138 L 21.429 7.728 C 21.429 7.317 21.207 6.734 20.935 6.427 C 18.8 4.021 13.802 4.024 11.922 6.33 C 11.628 6.691 11.389 7.362 11.389 7.827 L 11.389 15.832 L 27.671 16.148 C 27.853 16.148 28 16.289 28 16.464 L 28 30.684 C 28 30.858 27.853 31 27.671 31 L 5.329 31 C 5.147 31 5 30.858 5 30.684 L 5 16.148 C 5 15.973 5.147 15.832 5.329 15.832 L 7.556 15.832" fill="none" vector-effect="non-scaling-stroke" stroke-width="1.5" stroke="rgb(0,191,211)" stroke-linejoin="miter" stroke-linecap="square" stroke-miterlimit="3"/></g></svg>