<?xml version="1.0" encoding="UTF-8" standalone="no"?><!-- Generator: Gravit.io --><svg xmlns="http://www.w3.org/2000/svg" xmlns:xlink="http://www.w3.org/1999/xlink" style="isolation:isolate" viewBox="0 0 32 32" width="32pt" height="32pt"><defs><clipPath id="_clipPath_QpkltRCG8GbuL39tQ0mIQlI6KHD93srq"><rect width="32" height="32"/></clipPath></defs><g clip-path="url(#_clipPath_QpkltRCG8GbuL39tQ0mIQlI6KHD93srq)"><g><ellipse vector-effect="non-scaling-stroke" cx="5.2141701039557695" cy="23.94359740738708" rx="0.9364822453235027" ry="0.8109060771445229" fill="rgb(0,191,211)"/><path d=" M 9.428 13.807 C 12.316 12.794 14.662 10.5 16.257 7.304 C 16.365 7.089 16.495 6.724 16.549 6.49 C 16.837 5.221 17.164 3.882 17.295 3.286 C 17.346 3.051 17.5 2.7 17.637 2.502 C 19.027 0.495 20.749 0.499 22.276 2.513 C 22.421 2.704 22.645 3.024 22.775 3.226 C 24.042 5.192 24.207 7.904 23.166 10.563 C 23.078 10.787 23.203 10.969 23.443 10.969 L 27.722 10.969 C 27.963 10.969 28.321 11.077 28.521 11.21 C 31.009 12.864 31.642 14.63 30.339 15.932 C 30.169 16.102 30.083 16.428 30.147 16.66 C 30.575 18.205 30.428 19.565 29.896 20.014 C 29.712 20.169 29.573 20.489 29.586 20.73 C 29.696 22.779 29.238 24.679 28.437 25.637 C 28.283 25.821 28.157 26.166 28.155 26.407 C 28.147 27.787 27.532 29.011 26.677 29.429 C 26.46 29.534 26.12 29.724 25.916 29.852 C 23.71 31.242 20.905 31.381 18.255 30.202 C 18.035 30.105 17.669 29.971 17.438 29.905 L 9.428 27.593 L 9.428 27.593" fill="none" vector-effect="non-scaling-stroke" stroke-width="1.5" stroke="rgb(0,191,211)" stroke-linejoin="miter" stroke-linecap="square" stroke-miterlimit="3"/><path d="M 1.871 13.402 L 8.557 13.402 C 9.038 13.402 9.428 13.792 9.428 14.273 L 9.428 26.721 C 9.428 27.202 9.038 27.593 8.557 27.593 L 1.871 27.593 C 1.39 27.593 1 27.202 1 26.721 L 1 14.273 C 1 13.792 1.39 13.402 1.871 13.402 Z" style="fill:none;stroke:#00BFD3;stroke-width:1.5;stroke-linecap:square;stroke-miterlimit:2;"/></g></g></svg>